<svg xmlns="http://www.w3.org/2000/svg" viewBox="0 0 270.8 36">
    <g id="Layer_2" data-name="Layer 2">
        <g id="Full_Transparent" data-name="Full Transparent">
            <rect width="121" height="36" rx="3" style="fill:#005f94" />
            <g id="Solutions">
                <path d="M129.18,26.2a6,6,0,0,0,2.43,2.41,7.11,7.11,0,0,0,3.4.8,6.81,6.81,0,0,0,2.23-.36,5.74,5.74,0,0,0,1.82-1,4.82,4.82,0,0,0,1.22-1.57,4.63,4.63,0,0,0,.45-2.07,3.87,3.87,0,0,0-.56-2.19,4.54,4.54,0,0,0-1.49-1.43,10.77,10.77,0,0,0-2.11-1c-.78-.26-1.58-.53-2.41-.79s-1.63-.57-2.41-.9a8.34,8.34,0,0,1-2.11-1.32,5.82,5.82,0,0,1-1.49-2,7.3,7.3,0,0,1-.56-3,6.51,6.51,0,0,1,.67-3,6.33,6.33,0,0,1,1.8-2.2,8,8,0,0,1,2.61-1.33,10.5,10.5,0,0,1,3.09-.45,10,10,0,0,1,3.87.74A7.26,7.26,0,0,1,142.71,8l-2.05,1.47a6,6,0,0,0-2.11-1.89,6.07,6.07,0,0,0-2.86-.63,7.48,7.48,0,0,0-2.19.31,5.26,5.26,0,0,0-1.82.9,4.29,4.29,0,0,0-1.24,1.49,4.46,4.46,0,0,0-.47,2.13,4.08,4.08,0,0,0,1,2.93,7,7,0,0,0,2.43,1.62,25.07,25.07,0,0,0,3.17,1,15.78,15.78,0,0,1,3.17,1.21,6.84,6.84,0,0,1,2.43,2.11,6.32,6.32,0,0,1,1,3.72,7,7,0,0,1-.65,3.06,6.58,6.58,0,0,1-1.75,2.25,7.5,7.5,0,0,1-2.53,1.39,9.69,9.69,0,0,1-3,.47,12,12,0,0,1-4.65-.89,8.42,8.42,0,0,1-3.63-3Z" style="fill:#fff" />
                <path d="M147,22.6a9.33,9.33,0,0,1,.65-3.51,8.29,8.29,0,0,1,1.8-2.77,8,8,0,0,1,2.77-1.82,9.47,9.47,0,0,1,3.53-.65,9.33,9.33,0,0,1,3.51.65,8.18,8.18,0,0,1,4.59,4.59,9.8,9.8,0,0,1,0,7,8.18,8.18,0,0,1-4.59,4.59,9.33,9.33,0,0,1-3.51.65,9.47,9.47,0,0,1-3.53-.65,8,8,0,0,1-2.77-1.82,8.29,8.29,0,0,1-1.8-2.77A9.33,9.33,0,0,1,147,22.6Zm2.16,0a7.72,7.72,0,0,0,.45,2.65,6.23,6.23,0,0,0,1.31,2.16A6.5,6.5,0,0,0,153,28.87a6.73,6.73,0,0,0,2.74.54,6.65,6.65,0,0,0,2.73-.54,6.29,6.29,0,0,0,2.09-1.46,6.11,6.11,0,0,0,1.32-2.16,8,8,0,0,0,0-5.29,6.2,6.2,0,0,0-3.41-3.62,6.65,6.65,0,0,0-2.73-.54,6.73,6.73,0,0,0-2.74.54,6.35,6.35,0,0,0-2.09,1.46A6.23,6.23,0,0,0,149.57,20,7.67,7.67,0,0,0,149.12,22.6Z" style="fill:#fff" />
                <path d="M169.64,3.7h2.16V30.92h-2.16Z" style="fill:#fff" />
                <path d="M192,26.24c0,.31,0,.69,0,1.13l.06,1.35c0,.46,0,.88,0,1.28s0,.7,0,.92H190q0-.95-.06-1.8a5.38,5.38,0,0,0-.09-1.12h-.11a5.82,5.82,0,0,1-2.16,2.36,6.26,6.26,0,0,1-3.52,1,7.2,7.2,0,0,1-3.19-.61,5.1,5.1,0,0,1-1.95-1.6,6,6,0,0,1-.95-2.29,13.71,13.71,0,0,1-.25-2.66v-9.9h2.16v9.79a10.59,10.59,0,0,0,.18,2,5.13,5.13,0,0,0,.63,1.71A3.33,3.33,0,0,0,182,29a4.32,4.32,0,0,0,2.11.45,6.08,6.08,0,0,0,2.25-.42,4.78,4.78,0,0,0,1.83-1.26,6.17,6.17,0,0,0,1.23-2.12,9.08,9.08,0,0,0,.45-3V14.29H192Z" style="fill:#fff" />
                <path d="M206.07,16.23h-4.75V27.07a2.13,2.13,0,0,0,2.3,2.34,4.87,4.87,0,0,0,1.24-.17,6.89,6.89,0,0,0,1.21-.41l.18,1.94a12,12,0,0,1-1.4.4,6.47,6.47,0,0,1-1.41.18,5.13,5.13,0,0,1-2-.34,3.63,3.63,0,0,1-1.33-.92,3.55,3.55,0,0,1-.74-1.35,6,6,0,0,1-.23-1.67V16.23h-3.6V14.29h3.6V9.5h2.16v4.79h4.75Z" style="fill:#fff" />
                <path d="M209.74,7.7a1.56,1.56,0,0,1,.47-1.15A1.62,1.62,0,0,1,213,7.7a1.54,1.54,0,0,1-.47,1.15,1.56,1.56,0,0,1-1.15.47,1.6,1.6,0,0,1-1.62-1.62Zm.54,6.59h2.16V30.92h-2.16Z" style="fill:#fff" />
                <path d="M217.63,22.6a9.33,9.33,0,0,1,.64-3.51,8.61,8.61,0,0,1,1.8-2.77,8,8,0,0,1,2.78-1.82,9.42,9.42,0,0,1,3.52-.65,9.26,9.26,0,0,1,3.51.65,8.1,8.1,0,0,1,4.59,4.59,9.14,9.14,0,0,1,.65,3.51,9.14,9.14,0,0,1-.65,3.51,8.1,8.1,0,0,1-4.59,4.59,9.26,9.26,0,0,1-3.51.65,9.42,9.42,0,0,1-3.52-.65,8,8,0,0,1-2.78-1.82,8.61,8.61,0,0,1-1.8-2.77A9.33,9.33,0,0,1,217.63,22.6Zm2.16,0a7.72,7.72,0,0,0,.45,2.65,6.08,6.08,0,0,0,1.31,2.16,6.39,6.39,0,0,0,2.09,1.46,7.2,7.2,0,0,0,5.47,0,6.39,6.39,0,0,0,2.09-1.46,6.23,6.23,0,0,0,1.31-2.16,8,8,0,0,0,0-5.29,6.15,6.15,0,0,0-3.4-3.62,7.2,7.2,0,0,0-5.47,0,6.24,6.24,0,0,0-2.09,1.46A6.08,6.08,0,0,0,220.24,20,7.67,7.67,0,0,0,219.79,22.6Z" style="fill:#fff" />
                <path d="M240,19c0-.32,0-.69,0-1.14s0-.89,0-1.35,0-.88-.06-1.28,0-.7,0-.91h2.16c0,.62,0,1.22,0,1.8a5.34,5.34,0,0,0,.09,1.11h.11a5.82,5.82,0,0,1,2.16-2.36,6.29,6.29,0,0,1,3.53-1,7,7,0,0,1,3.16.62,5,5,0,0,1,1.93,1.6,6,6,0,0,1,1,2.28A13.14,13.14,0,0,1,254.2,21v9.9H252V21.13a10.61,10.61,0,0,0-.18-2,5.3,5.3,0,0,0-.63-1.71,3.31,3.31,0,0,0-1.26-1.2,4.3,4.3,0,0,0-2.1-.45,6.2,6.2,0,0,0-2.25.41,5,5,0,0,0-1.84,1.26,6,6,0,0,0-1.22,2.13,9,9,0,0,0-.45,3v8.32H240Z" style="fill:#fff" />
                <path d="M260,26.67a4.59,4.59,0,0,0,2,2,6,6,0,0,0,2.81.71,4.67,4.67,0,0,0,1.37-.22,4.11,4.11,0,0,0,1.22-.61,3.39,3.39,0,0,0,.89-1,2.43,2.43,0,0,0,.34-1.27,2.06,2.06,0,0,0-.74-1.73,5.26,5.26,0,0,0-1.82-.9,21.81,21.81,0,0,0-2.37-.56,10.51,10.51,0,0,1-2.38-.72,5,5,0,0,1-1.82-1.35,3.68,3.68,0,0,1-.74-2.45,4.24,4.24,0,0,1,.51-2.12,4.62,4.62,0,0,1,1.31-1.5,5.8,5.8,0,0,1,1.82-.88,7.52,7.52,0,0,1,2-.29,7.84,7.84,0,0,1,3.55.76A5.25,5.25,0,0,1,270.33,17l-1.94,1.15a4.63,4.63,0,0,0-1.53-1.75,4.42,4.42,0,0,0-2.4-.59,4.37,4.37,0,0,0-1.2.18,4.53,4.53,0,0,0-1.14.5,2.89,2.89,0,0,0-.84.83,2,2,0,0,0-.35,1.15,1.92,1.92,0,0,0,.74,1.66,5.57,5.57,0,0,0,1.82.84,21.72,21.72,0,0,0,2.38.53,9.21,9.21,0,0,1,2.37.7,4.82,4.82,0,0,1,1.82,1.4,4.08,4.08,0,0,1,.74,2.61,4.79,4.79,0,0,1-.49,2.25,4.59,4.59,0,0,1-1.33,1.6,5.86,5.86,0,0,1-1.93,1,8,8,0,0,1-2.26.32,9.31,9.31,0,0,1-4-.83A6,6,0,0,1,258.09,28Z" style="fill:#fff" />
            </g>
            <g id="Bulmer">
                <path d="M5.2,5.43h7.34a19.46,19.46,0,0,1,2.92.23,7,7,0,0,1,2.64,1A5.56,5.56,0,0,1,20,8.69a7.09,7.09,0,0,1,.74,3.47,5.31,5.31,0,0,1-1.15,3.39,5.65,5.65,0,0,1-3.42,1.9v.08a6.83,6.83,0,0,1,2.3.59,5.65,5.65,0,0,1,3,3.22,6.93,6.93,0,0,1,.42,2.45A6.8,6.8,0,0,1,21,27.37a6.42,6.42,0,0,1-2.12,2.18,8.13,8.13,0,0,1-2.78,1.08,14.87,14.87,0,0,1-2.79.29H5.2Zm2.37,11h4.94a8.31,8.31,0,0,0,3-.45,5.17,5.17,0,0,0,1.8-1.1,3.22,3.22,0,0,0,.87-1.39,5,5,0,0,0,.21-1.35A4.86,4.86,0,0,0,17.92,10a3.77,3.77,0,0,0-1.2-1.41A5,5,0,0,0,15,7.81a9.71,9.71,0,0,0-2.12-.22H7.57Zm0,12.31H13a9.3,9.3,0,0,0,3.37-.51,5,5,0,0,0,2-1.26,4,4,0,0,0,.92-1.6,6,6,0,0,0,.23-1.53A5,5,0,0,0,19,21.45a4.87,4.87,0,0,0-1.4-1.64,6,6,0,0,0-2-.92,8.75,8.75,0,0,0-2.21-.28H7.57Z" style="fill:#fff" />
                <path d="M41.34,26.24c0,.31,0,.69,0,1.13s0,.9,0,1.35,0,.88.06,1.28,0,.7,0,.92H39.36c0-.63,0-1.23,0-1.8A7.4,7.4,0,0,0,39.22,28h-.11A5.76,5.76,0,0,1,37,30.36a6.31,6.31,0,0,1-3.53,1,7.15,7.15,0,0,1-3.18-.61,5.1,5.1,0,0,1-1.95-1.6,5.71,5.71,0,0,1-.95-2.29,13.71,13.71,0,0,1-.25-2.66v-9.9h2.15v9.79a10.51,10.51,0,0,0,.18,2,5.13,5.13,0,0,0,.63,1.71A3.36,3.36,0,0,0,31.32,29a4.3,4.3,0,0,0,2.1.45A6.08,6.08,0,0,0,35.67,29a4.74,4.74,0,0,0,1.84-1.26,6.15,6.15,0,0,0,1.22-2.12,9.08,9.08,0,0,0,.45-3V14.29h2.16Z" style="fill:#fff" />
                <path d="M47.64,3.7H49.8V30.92H47.64Z" style="fill:#fff" />
                <path d="M55.92,19c0-.31,0-.69,0-1.14s0-.89-.05-1.35,0-.88,0-1.28,0-.7,0-.91H57.9c0,.62,0,1.22.05,1.8A7.36,7.36,0,0,0,58,17.2h.11a5.88,5.88,0,0,1,2.16-2.36,6.31,6.31,0,0,1,3.53-1,5.67,5.67,0,0,1,3,.85,4.72,4.72,0,0,1,2,2.75,5.42,5.42,0,0,1,2.36-2.73,6.7,6.7,0,0,1,3.3-.87,7,7,0,0,1,3.16.62,5.11,5.11,0,0,1,1.93,1.6,6,6,0,0,1,1,2.28A13.14,13.14,0,0,1,80.83,21v9.9H78.67V21.13a10.61,10.61,0,0,0-.18-2,5.3,5.3,0,0,0-.63-1.71,3.31,3.31,0,0,0-1.26-1.2,4.3,4.3,0,0,0-2.1-.45,5,5,0,0,0-2.49.56,4.28,4.28,0,0,0-1.53,1.42,6,6,0,0,0-.79,1.87,8.22,8.22,0,0,0-.23,1.91v9.36H67.3v-10a7.2,7.2,0,0,0-.85-3.71,2.84,2.84,0,0,0-2.61-1.4,6.28,6.28,0,0,0-2.25.41,5,5,0,0,0-1.84,1.26,6.2,6.2,0,0,0-1.22,2.13,9,9,0,0,0-.45,3v8.32H55.92Z" style="fill:#fff" />
                <path d="M101.28,27.79a7.29,7.29,0,0,1-3.11,2.73,10,10,0,0,1-4.09.83,9,9,0,0,1-3.46-.65A7.73,7.73,0,0,1,88,28.88a8,8,0,0,1-1.71-2.77,10,10,0,0,1-.59-3.54,9.5,9.5,0,0,1,.61-3.46A8.13,8.13,0,0,1,88,16.36a8.22,8.22,0,0,1,2.62-1.84A8.31,8.31,0,0,1,94,13.85a8.11,8.11,0,0,1,3.37.67,7.5,7.5,0,0,1,2.45,1.76,7.6,7.6,0,0,1,1.49,2.51,8.21,8.21,0,0,1,.5,2.84v1.51h-14a7.4,7.4,0,0,0,.27,1.75,6.14,6.14,0,0,0,1,2.07A6.33,6.33,0,0,0,91,28.69a6,6,0,0,0,3.12.72,6.93,6.93,0,0,0,3.2-.8,5.74,5.74,0,0,0,2.38-2.16ZM99.62,21.2a4.91,4.91,0,0,0-.45-2.09A5.46,5.46,0,0,0,98,17.4a5.9,5.9,0,0,0-1.84-1.17,5.82,5.82,0,0,0-2.25-.43,5.51,5.51,0,0,0-2.93.72,6.37,6.37,0,0,0-1.85,1.65,7,7,0,0,0-1,1.82,4.78,4.78,0,0,0-.28,1.21Z" style="fill:#fff" />
                <path d="M106.61,19c0-.31,0-.69,0-1.14s0-.89,0-1.35,0-.88-.06-1.28,0-.7,0-.91h2.16c0,.62,0,1.22,0,1.8a5.34,5.34,0,0,0,.09,1.11,7.4,7.4,0,0,1,2.13-2.41,5.28,5.28,0,0,1,3.16-.94,3.21,3.21,0,0,1,.63.06l.63.12L115,16.16a2.52,2.52,0,0,0-.83-.15,6.06,6.06,0,0,0-2.43.45,4.64,4.64,0,0,0-1.69,1.25,5.31,5.31,0,0,0-1,1.85,8,8,0,0,0-.32,2.29v9.07h-2.16Z" style="fill:#fff" />
            </g>
        </g>
    </g>
</svg>