<svg id="Small_Transparent" data-name="Small Transparent" xmlns="http://www.w3.org/2000/svg" viewBox="0 0 132 132">
    <rect x="20.53" y="28.23" width="48.94" height="75.54" rx="6.3" style="fill:#005f94" />
    <g id="B">
        <path d="M28.53,39.26H43.94a38.63,38.63,0,0,1,6.12.49,14.62,14.62,0,0,1,5.55,2,11.88,11.88,0,0,1,4,4.3,14.89,14.89,0,0,1,1.55,7.29,11.07,11.07,0,0,1-2.42,7.11,11.88,11.88,0,0,1-7.18,4v.15a14.26,14.26,0,0,1,4.84,1.25,11.84,11.84,0,0,1,6.23,6.76,14.61,14.61,0,0,1,.87,5.13,14.28,14.28,0,0,1-1.78,7.52,13.56,13.56,0,0,1-4.46,4.57,17.1,17.1,0,0,1-5.81,2.27,31.25,31.25,0,0,1-5.86.6H28.53Zm5,23.11H43.87a17.55,17.55,0,0,0,6.27-.94,10.88,10.88,0,0,0,3.77-2.3,7,7,0,0,0,1.82-2.91,10.72,10.72,0,0,0-.49-7.48,7.93,7.93,0,0,0-2.53-3A10.4,10.4,0,0,0,49,44.24a21.32,21.32,0,0,0-4.45-.45h-11Zm0,25.84h11.4A19.53,19.53,0,0,0,52,87.15a10.66,10.66,0,0,0,4.11-2.64A8.36,8.36,0,0,0,58,81.15a12.12,12.12,0,0,0,.49-3.21,10.66,10.66,0,0,0-1.13-5.07,10.15,10.15,0,0,0-3-3.43,12.15,12.15,0,0,0-4.11-1.93,18.43,18.43,0,0,0-4.65-.6H33.52Z" style="fill:#fff" />
    </g>
    <g id="S">
        <path d="M78.24,82.85a12.76,12.76,0,0,0,5.09,5.06,15,15,0,0,0,7.14,1.66,14.15,14.15,0,0,0,4.69-.76A11.93,11.93,0,0,0,99,86.7a10,10,0,0,0,2.57-3.29,9.71,9.71,0,0,0,.94-4.34,8.37,8.37,0,0,0-1.17-4.61,9.32,9.32,0,0,0-3.13-3,23.66,23.66,0,0,0-4.42-2c-1.64-.55-3.32-1.1-5.06-1.66a51.66,51.66,0,0,1-5.06-1.89,16.85,16.85,0,0,1-4.42-2.75,12.38,12.38,0,0,1-3.14-4.27,15.29,15.29,0,0,1-1.17-6.35,13.78,13.78,0,0,1,1.4-6.3,13.37,13.37,0,0,1,3.78-4.61,16.66,16.66,0,0,1,5.47-2.8,22.17,22.17,0,0,1,6.5-.94,21,21,0,0,1,8.12,1.55,15.38,15.38,0,0,1,6.46,5.17l-4.31,3.1a11.86,11.86,0,0,0-10.42-5.29,16.62,16.62,0,0,0-4.61.64A11.53,11.53,0,0,0,83.49,45a9.18,9.18,0,0,0-2.61,3.14,9.45,9.45,0,0,0-1,4.45,8.61,8.61,0,0,0,2,6.16,14.31,14.31,0,0,0,5.1,3.4,54.41,54.41,0,0,0,6.64,2.19,31.93,31.93,0,0,1,6.65,2.53,14.36,14.36,0,0,1,5.1,4.42c1.36,1.89,2,4.49,2,7.82a14.43,14.43,0,0,1-1.36,6.42,14.22,14.22,0,0,1-3.66,4.72,15.94,15.94,0,0,1-5.33,2.91,20.25,20.25,0,0,1-6.27,1,25.22,25.22,0,0,1-9.74-1.85A17.73,17.73,0,0,1,73.48,86Z" style="fill:#FFFFFF" />
    </g>
</svg>
